<mxfile host="app.diagrams.net" modified="2023-11-07T07:18:31.854Z" agent="Mozilla/5.0 (Windows NT 10.0; Win64; x64; rv:109.0) Gecko/20100101 Firefox/119.0" version="22.0.8" etag="GKP5xj4zmYyeWbE3d5QE" type="github">
  <diagram name="Page-1" id="oRxGY57pEIAGdp1b8TV-">
    <mxGraphModel>
      <root>
        <mxCell id="0" />
        <mxCell id="1" parent="0" />
      </root>
    </mxGraphModel>
  </diagram>
</mxfile>
